<?xml version="1.0" standalone="no"?>
<!DOCTYPE svg PUBLIC "-//W3C//DTD SVG 20010904//EN"
 "http://www.w3.org/TR/2001/REC-SVG-20010904/DTD/svg10.dtd">
<svg version="1.0" xmlns="http://www.w3.org/2000/svg"
 width="1145.000000pt" height="250.000000pt" viewBox="0 0 1145.000000 250.000000"
 preserveAspectRatio="xMidYMid meet">

<g transform="translate(0.000000,250.000000) scale(0.100000,-0.100000)"
 stroke="none">
<path fill="#1e4696" d="M616 2421 l-67 -68 48 -43 c158 -139 364 -223 583 -237 84 -5 223 6
287 23 21 6 20 0 -22 -90 -25 -52 -45 -100 -45 -105 0 -15 -41 -21 -156 -21
-289 0 -578 108 -777 290 l-54 49 -69 -70 -69 -70 40 -35 c187 -164 372 -263
599 -320 78 -20 137 -27 259 -31 l158 -6 -6 -26 c-4 -14 -13 -57 -19 -96 l-12
-70 -43 -3 c-57 -4 -230 13 -328 33 -248 51 -519 187 -706 354 -37 34 -71 61
-75 61 -4 0 -36 -29 -71 -64 l-63 -63 52 -64 c65 -80 124 -201 150 -303 27
-107 27 -264 0 -372 -25 -101 -97 -244 -157 -313 l-46 -53 70 -70 70 -70 67
84 c183 229 249 512 190 825 l-6 31 105 -46 105 -47 6 -44 c10 -73 7 -180 -8
-281 -34 -220 -124 -416 -275 -598 l-49 -59 67 -67 68 -67 56 62 c110 121 214
299 267 459 42 125 61 232 67 383 6 145 7 148 27 143 12 -3 54 -11 95 -18 l74
-12 -6 -146 c-14 -339 -143 -657 -375 -927 l-70 -80 68 -68 69 -68 41 37 c88
79 211 142 338 172 88 22 256 22 347 0 93 -22 257 -104 323 -162 l54 -47 70
70 70 70 -76 61 c-142 114 -293 181 -470 209 -106 16 -259 13 -345 -7 -24 -6
-45 -9 -47 -7 -2 2 13 42 35 88 21 46 41 91 44 100 17 52 330 35 522 -27 145
-48 268 -117 401 -225 l71 -58 67 68 67 68 -45 41 c-241 222 -570 352 -892
352 -74 0 -114 4 -114 11 0 41 36 182 47 186 21 8 261 -14 350 -33 252 -51
508 -178 710 -352 l80 -70 66 66 66 67 -54 68 c-63 78 -125 201 -151 297 -25
90 -25 290 0 380 25 95 87 216 150 297 l55 70 -68 67 -68 68 -47 -54 c-187
-211 -273 -524 -222 -808 8 -41 13 -76 11 -78 -4 -5 -200 91 -207 102 -13 20
-8 261 7 348 36 211 143 428 285 582 l39 42 -69 69 -70 70 -48 -54 c-223 -253
-341 -554 -345 -884 l-2 -118 -30 6 c-16 3 -61 11 -99 18 l-69 12 6 120 c18
360 163 715 391 961 l65 71 -68 67 -68 68 -63 -51 c-294 -236 -700 -235 -992
3 l-55 45 -67 -68z"/>
</g>
</svg>
