<?xml version="1.0" standalone="no"?>
<!DOCTYPE svg PUBLIC "-//W3C//DTD SVG 20010904//EN"
 "http://www.w3.org/TR/2001/REC-SVG-20010904/DTD/svg10.dtd">
<svg version="1.0" xmlns="http://www.w3.org/2000/svg"
 width="1145.000000pt" height="250.000000pt" viewBox="0 0 1145.000000 250.000000"
 preserveAspectRatio="xMidYMid meet">

<g transform="translate(0.000000,250.000000) scale(0.100000,-0.100000)"
 stroke="none">
<path fill="#1e4696" d="M616 2421 l-67 -68 48 -43 c158 -139 364 -223 583 -237 84 -5 223 6
287 23 21 6 20 0 -22 -90 -25 -52 -45 -100 -45 -105 0 -15 -41 -21 -156 -21
-289 0 -578 108 -777 290 l-54 49 -69 -70 -69 -70 40 -35 c187 -164 372 -263
599 -320 78 -20 137 -27 259 -31 l158 -6 -6 -26 c-4 -14 -13 -57 -19 -96 l-12
-70 -43 -3 c-57 -4 -230 13 -328 33 -248 51 -519 187 -706 354 -37 34 -71 61
-75 61 -4 0 -36 -29 -71 -64 l-63 -63 52 -64 c65 -80 124 -201 150 -303 27
-107 27 -264 0 -372 -25 -101 -97 -244 -157 -313 l-46 -53 70 -70 70 -70 67
84 c183 229 249 512 190 825 l-6 31 105 -46 105 -47 6 -44 c10 -73 7 -180 -8
-281 -34 -220 -124 -416 -275 -598 l-49 -59 67 -67 68 -67 56 62 c110 121 214
299 267 459 42 125 61 232 67 383 6 145 7 148 27 143 12 -3 54 -11 95 -18 l74
-12 -6 -146 c-14 -339 -143 -657 -375 -927 l-70 -80 68 -68 69 -68 41 37 c88
79 211 142 338 172 88 22 256 22 347 0 93 -22 257 -104 323 -162 l54 -47 70
70 70 70 -76 61 c-142 114 -293 181 -470 209 -106 16 -259 13 -345 -7 -24 -6
-45 -9 -47 -7 -2 2 13 42 35 88 21 46 41 91 44 100 17 52 330 35 522 -27 145
-48 268 -117 401 -225 l71 -58 67 68 67 68 -45 41 c-241 222 -570 352 -892
352 -74 0 -114 4 -114 11 0 41 36 182 47 186 21 8 261 -14 350 -33 252 -51
508 -178 710 -352 l80 -70 66 66 66 67 -54 68 c-63 78 -125 201 -151 297 -25
90 -25 290 0 380 25 95 87 216 150 297 l55 70 -68 67 -68 68 -47 -54 c-187
-211 -273 -524 -222 -808 8 -41 13 -76 11 -78 -4 -5 -200 91 -207 102 -13 20
-8 261 7 348 36 211 143 428 285 582 l39 42 -69 69 -70 70 -48 -54 c-223 -253
-341 -554 -345 -884 l-2 -118 -30 6 c-16 3 -61 11 -99 18 l-69 12 6 120 c18
360 163 715 391 961 l65 71 -68 67 -68 68 -63 -51 c-294 -236 -700 -235 -992
3 l-55 45 -67 -68z"/>
<path d="M3250 2307 c-77 -39 -52 -157 34 -157 48 0 65 8 82 42 22 42 10 85
-29 109 -37 22 -53 23 -87 6z"/>
<path d="M3475 2308 c-32 -17 -45 -39 -45 -78 0 -46 33 -80 77 -80 45 0 62 9
79 42 22 42 10 85 -29 109 -36 21 -53 23 -82 7z"/>
<path d="M7511 2309 c-35 -14 -50 -39 -51 -81 0 -71 93 -106 145 -53 63 62
-12 168 -94 134z"/>
<path d="M7734 2310 c-55 -22 -70 -95 -29 -135 53 -53 145 -16 145 58 0 56
-65 99 -116 77z"/>
<path d="M5055 2288 c-32 -17 -45 -39 -45 -75 0 -74 88 -110 146 -59 76 65
-12 183 -101 134z"/>
<path d="M6565 2258 c-32 -17 -45 -39 -45 -75 0 -74 88 -110 146 -59 76 65
-12 183 -101 134z"/>
<path d="M5990 1960 l0 -300 -120 0 -120 0 0 185 0 185 -70 0 -70 0 0 -185 0
-185 -134 0 -135 0 26 57 c65 142 12 289 -131 366 -34 18 -57 22 -141 22 -85
0 -106 -3 -142 -23 -99 -53 -155 -142 -155 -247 0 -56 9 -89 50 -167 2 -5
-278 -8 -622 -8 l-626 0 0 215 0 215 -134 0 c-176 0 -247 -20 -316 -89 -60
-60 -85 -128 -78 -215 11 -137 106 -231 259 -256 42 -6 672 -10 1862 -10
l1799 0 -4 168 c-3 165 -3 168 -34 221 -23 42 -43 62 -85 85 l-54 31 -212 3
-213 3 0 -64 0 -65 183 -4 c157 -3 186 -6 213 -22 45 -27 64 -67 71 -146 l6
-70 -372 0 -371 0 0 300 0 300 -65 0 -65 0 0 -300z m-799 -5 c69 -45 91 -149
46 -216 -26 -39 -97 -79 -142 -79 -45 1 -109 34 -135 70 -33 46 -38 116 -12
167 46 89 156 116 243 58z m-1731 -151 l0 -147 -75 6 c-121 9 -175 56 -175
151 0 34 6 52 27 77 37 43 76 58 156 59 l67 0 0 -146z"/>
<path d="M10430 1890 l0 -370 506 0 506 0 -4 163 c-4 179 -14 216 -70 275 -60
61 -113 72 -338 72 l-200 0 0 -64 0 -64 183 -4 c202 -3 225 -9 264 -67 18 -27
23 -48 23 -102 l0 -69 -365 0 -365 0 0 300 0 300 -70 0 -70 0 0 -370z"/>
<path d="M9045 2093 c-64 -23 -133 -64 -163 -96 l-23 -25 36 -93 c21 -52 48
-122 61 -156 l24 -63 -560 0 -560 0 0 216 0 216 -157 -4 c-146 -3 -162 -5
-213 -29 -109 -52 -164 -135 -164 -249 1 -124 63 -214 183 -262 l56 -23 1120
-5 1120 -5 45 -27 c203 -120 453 21 454 257 1 317 -431 413 -571 127 -23 -48
-28 -69 -27 -134 l0 -78 -158 0 c-87 0 -158 1 -158 3 0 2 27 72 60 157 l60
154 -28 29 c-15 15 -60 45 -101 65 -70 34 -81 37 -180 40 -82 2 -117 -2 -156
-15z m282 -141 l41 -22 -53 -132 -53 -133 -78 0 -78 0 -36 90 c-20 50 -44 109
-53 132 l-17 43 33 16 c55 29 80 34 167 31 63 -3 96 -9 127 -25z m-1607 -148
l0 -147 -74 5 c-114 7 -186 64 -186 147 0 87 71 140 188 141 l72 0 0 -146z
m2330 106 c41 -11 94 -61 109 -103 26 -69 6 -143 -52 -194 -64 -56 -141 -56
-204 0 -82 72 -84 186 -6 260 45 42 93 54 153 37z"/>
<path d="M11091 1443 c-12 -10 -24 -35 -28 -55 -5 -32 -1 -41 26 -69 28 -27
37 -31 69 -26 41 7 82 46 82 78 0 28 -26 75 -45 83 -31 12 -83 6 -104 -11z"/>
<path d="M5535 1420 c-54 -21 -66 -98 -20 -137 58 -50 145 -9 145 68 0 11 -13
34 -29 50 -30 29 -58 35 -96 19z"/>
<path d="M5753 1420 c-71 -29 -46 -160 31 -160 85 0 125 83 67 141 -30 29 -58
35 -98 19z"/>
<path d="M5237 1010 c-33 -26 -43 -70 -23 -108 17 -34 34 -42 81 -42 44 0 74
27 82 72 5 32 1 41 -25 68 -36 36 -77 39 -115 10z"/>
<path d="M8013 1020 c-28 -12 -43 -40 -43 -84 0 -69 94 -103 145 -51 30 29 33
83 8 114 -20 24 -77 35 -110 21z"/>
<path d="M10185 1005 c-36 -35 -37 -85 -2 -122 45 -49 147 -14 147 51 0 83
-90 127 -145 71z"/>
<path d="M4950 630 l0 -380 75 0 75 0 0 380 0 380 -75 0 -75 0 0 -380z"/>
<path d="M5698 995 c-86 -32 -123 -80 -134 -179 l-7 -56 -63 0 -64 0 0 -55 0
-55 65 0 65 0 0 -200 0 -200 70 0 70 0 0 200 0 200 80 0 80 0 0 55 0 55 -80 0
-80 0 0 30 c0 64 39 100 111 100 25 0 28 4 34 51 5 39 4 54 -6 60 -21 13 -99
10 -141 -6z"/>
<path d="M3802 628 l3 -373 68 -3 67 -3 0 169 c0 162 1 169 23 190 62 58 160
54 193 -9 10 -21 14 -69 14 -189 l0 -161 68 3 67 3 0 170 c-1 151 -3 175 -22
216 -11 25 -31 56 -44 69 -63 59 -175 77 -256 40 l-43 -19 0 134 0 135 -70 0
-70 0 2 -372z"/>
<path d="M3110 620 l0 -370 70 0 70 0 2 183 3 182 160 -182 160 -183 87 0 c49
0 88 2 88 5 0 3 -79 92 -175 200 -96 107 -175 197 -175 201 0 3 71 79 157 168
l156 161 -89 3 -89 3 -142 -148 -142 -148 0 148 -1 147 -70 0 -70 0 0 -370z"/>
<path d="M6630 735 c0 -291 8 -333 80 -405 108 -108 345 -110 455 -3 75 73 80
94 83 396 l3 267 -70 0 -71 0 0 -254 c0 -246 -1 -254 -22 -286 -41 -59 -72
-75 -148 -75 -76 0 -107 16 -147 75 -22 32 -23 40 -23 286 l0 254 -70 0 -70 0
0 -255z"/>
<path d="M10520 830 l0 -70 -65 0 -65 0 0 -55 0 -55 64 0 64 0 4 -128 c3 -113
7 -135 29 -177 38 -75 95 -99 228 -96 l43 1 -7 46 c-10 69 -14 76 -43 71 -41
-8 -92 11 -102 39 -6 14 -10 75 -10 135 l0 109 85 0 85 0 0 55 0 55 -85 0 -85
0 0 70 0 70 -70 0 -70 0 0 -70z"/>
<path d="M4483 749 c-35 -11 -63 -24 -63 -29 0 -4 9 -29 20 -55 16 -38 24 -46
38 -40 102 44 162 44 199 0 31 -35 31 -59 1 -48 -49 17 -142 9 -193 -17 -55
-28 -95 -89 -95 -145 0 -52 40 -117 87 -143 56 -30 140 -32 188 -4 33 20 33
20 38 1 5 -18 13 -20 69 -17 l63 3 0 180 c0 166 -2 183 -22 221 -57 107 -179
141 -330 93z m205 -278 c25 -15 10 -64 -27 -88 -40 -27 -78 -29 -109 -7 -54
37 -5 104 77 104 25 0 52 -4 59 -9z"/>
<path d="M5220 510 l0 -260 75 0 75 0 0 260 0 260 -75 0 -75 0 0 -260z"/>
<path d="M5973 749 c-35 -11 -63 -23 -63 -28 0 -5 9 -30 21 -55 16 -37 24 -46
37 -40 101 43 162 42 199 -1 28 -32 31 -60 6 -50 -72 29 -176 10 -235 -43
-117 -105 -37 -283 127 -283 30 0 69 7 86 15 29 14 33 14 43 0 9 -11 26 -14
71 -12 l60 3 0 180 c-1 165 -3 183 -22 221 -57 107 -179 141 -330 93z m205
-278 c25 -15 10 -64 -27 -88 -40 -27 -78 -29 -109 -7 -54 37 -5 104 77 104 25
0 52 -4 59 -9z"/>
<path d="M7551 750 c-52 -24 -51 -24 -51 -5 0 12 -14 15 -65 15 l-65 0 2 -252
3 -253 68 -3 67 -3 0 168 c0 92 4 173 8 179 15 24 79 54 114 54 27 0 47 -8 70
-29 l33 -29 3 -171 3 -171 65 0 64 0 0 168 c0 128 -4 180 -16 215 -38 113
-186 170 -303 117z"/>
<path d="M7980 510 l0 -260 75 0 75 0 0 260 0 260 -75 0 -75 0 0 -260z"/>
<path d="M8911 756 c-118 -43 -187 -194 -148 -327 32 -109 128 -180 246 -180
71 -1 143 21 186 56 l30 24 -39 40 -38 39 -35 -24 c-46 -31 -123 -33 -171 -4
-31 19 -66 76 -56 92 3 5 84 8 181 8 l176 0 -7 54 c-11 101 -65 183 -141 217
-46 21 -133 24 -184 5z m160 -125 c53 -53 43 -61 -76 -61 -112 0 -121 5 -87
46 43 54 117 60 163 15z"/>
<path d="M9507 746 c-44 -22 -47 -22 -47 -5 0 17 -8 19 -65 19 l-65 0 0 -255
0 -255 65 0 65 0 0 159 c0 145 2 160 21 185 28 36 70 56 119 56 27 0 40 4 40
14 0 7 3 34 6 60 l7 46 -50 0 c-32 0 -66 -8 -96 -24z"/>
<path d="M9795 751 c-60 -28 -87 -62 -93 -119 -8 -88 13 -109 181 -181 58 -25
69 -47 36 -74 -29 -24 -89 -19 -148 11 l-39 21 -31 -47 -31 -47 23 -17 c33
-25 118 -49 174 -50 104 0 183 47 203 121 22 83 -30 153 -143 190 -79 27 -102
43 -94 65 15 39 74 44 149 12 12 -6 24 5 48 39 37 54 36 56 -44 80 -67 20
-142 19 -191 -4z"/>
<path d="M10170 510 l0 -260 75 0 75 0 0 260 0 260 -75 0 -75 0 0 -260z"/>
<path d="M8190 757 c0 -3 51 -116 114 -253 l115 -249 47 0 48 0 113 244 c62
135 113 248 113 253 0 4 -31 8 -69 8 l-68 0 -68 -150 c-37 -83 -70 -148 -73
-145 -3 3 -33 69 -67 148 l-62 142 -72 3 c-39 2 -71 1 -71 -1z"/>
<path d="M10973 533 l114 -228 -69 -149 c-37 -82 -68 -151 -68 -153 0 -2 32
-3 71 -1 l70 3 108 235 c59 129 138 299 174 378 l66 142 -74 0 -73 0 -63 -145
c-35 -79 -66 -145 -69 -145 -3 0 -38 65 -78 145 l-72 145 -75 0 -75 0 113
-227z"/>
</g>
</svg>
